<svg xmlns="http://www.w3.org/2000/svg" viewBox="0 0 30 30" enable-background="new 0 0 30 30"><path d="M15.8 7.8c-5.5 0-10 4.4-10 9.9 0 1.2.2 2.3.6 3.4l.2.6 9.4.1 8.9-.1.2-.6c.4-1.1.6-2.2.6-3.4.1-5.4-4.4-9.9-9.9-9.9zm7.8 12h-7.5l-7.9-.1c-.2-.7-.3-1.4-.3-2.1 0-4.3 3.6-7.9 8-7.9s8 3.5 8 7.9c-.1.8-.2 1.5-.3 2.2zm-7.1-9.1h-1v1.7h1v-1.7zm-6.4 2.6l1.2 1.2.7-.7-1.2-1.2-.7.7zm10-.6l-.3-.3-3.2 3.2c-.2-.1-.4-.1-.6-.1-.8 0-1.5.7-1.5 1.5s.7 1.5 1.5 1.5 1.5-.7 1.5-1.5c0-.2-.1-.5-.2-.7l2.2-2.2.3.3 1.2-1.2-.7-.7-.2.2zM9.2 18h1.7v-1H9.2v1zm12 0h1.7v-1h-1.7v1z"/></svg>