<svg xmlns="http://www.w3.org/2000/svg" viewBox="0 0 30 30"><path d="M3 9v17h12V14zm5 15H5v-3h3v3zm0-5H5v-3h3v3zm5 5h-3v-3h3v3zm0-5h-3v-3h3v3zM28 12v-2h-1.75a4.44 4.44 0 0 0-.5-1.34l1.2-1.2-1.41-1.41-1.12 1.11A4.47 4.47 0 0 0 23 6.51V5h-2v1.42a4.46 4.46 0 0 0-1.55.58l-1-1-1.4 1.46 1 1a4.46 4.46 0 0 0-.63 1.54H16v2h1.51a4.47 4.47 0 0 0 .66 1.42l-1.11 1.11 1.41 1.41 1.2-1.2a4.44 4.44 0 0 0 1.34.5V17h2v-1.84a4.47 4.47 0 0 0 1.22-.53l1.32 1.32 1.41-1.41-1.32-1.32a4.47 4.47 0 0 0 .52-1.22H28zm-6.17 1.33a2.5 2.5 0 1 1 2.5-2.5 2.5 2.5 0 0 1-2.5 2.5z"/></svg>