<svg xmlns="http://www.w3.org/2000/svg" viewBox="0 0 30 30"><path d="M4.14 16.28A8.5 8.5 0 0 1 6 7a8.55 8.55 0 0 1 2.68-1.86A9.08 9.08 0 0 1 12 4.47v2A6.11 6.11 0 0 0 9.46 7a6.49 6.49 0 0 0-4 6A6.45 6.45 0 0 0 6 15.5zM17 25.47v-2a6 6 0 0 0 2.51-.47A6.51 6.51 0 0 0 23 14.44l1.84-.78a8.53 8.53 0 0 1-4.55 11.14 8.93 8.93 0 0 1-3.29.67zM21.89 17.47l-1.46-1.36 3.97-4.26 4.21 3.93-1.37 1.46-2.74-2.56-2.61 2.79zM5.46 18.29L.63 15l1.12-1.65 3.19 2.16 1.98-2.91 1.65 1.13-3.11 4.56zM16.17 12.59a3.93 3.93 0 0 0-.88-.59 2.13 2.13 0 0 0-1-.21 1.47 1.47 0 0 0-.93.26 1 1 0 0 0-.32.83.87.87 0 0 0 .33.69 4.25 4.25 0 0 0 .83.53l1.08.52a5.78 5.78 0 0 1 1.08.66 3.4 3.4 0 0 1 .83.94 2.61 2.61 0 0 1 .33 1.36 3.34 3.34 0 0 1-.61 2.09A2.82 2.82 0 0 1 15 20.8V23h-2v-2.13c0-.06-.89-.19-1.44-.41a4.31 4.31 0 0 1-1.35-.87l1.12-1.68a5.83 5.83 0 0 0 1.25.74 3.09 3.09 0 0 0 1.2.25 1.58 1.58 0 0 0 1-.29 1.11 1.11 0 0 0 .33-.88 1 1 0 0 0-.29-.73 4.39 4.39 0 0 0-.82-.62c-.33-.19-.69-.37-1.08-.56a6 6 0 0 1-1.08-.67 3.57 3.57 0 0 1-.84-.91 2.38 2.38 0 0 1-.33-1.29 3.07 3.07 0 0 1 .56-2.08A2.39 2.39 0 0 1 13 9.81V8h2v1.78c0 .08 1 .24 1.38.49a5.19 5.19 0 0 1 1.08.9z"/></svg>