<?xml version="1.0" encoding="utf-8"?><svg xmlns="http://www.w3.org/2000/svg" xmlns:xlink="http://www.w3.org/1999/xlink"><symbol viewBox="0 0 18 18" id="icon-captions-off"><path d="M1 2a1 1 0 0 0-1 1v12a1 1 0 0 0 1 1h16a1 1 0 0 0 1-1V3a1 1 0 0 0-1-1H1zm1 12V4h14v10H2z"/></symbol><symbol viewBox="0 0 18 18" id="icon-captions-on"><path d="M1 2a1 1 0 0 0-1 1v12a1 1 0 0 0 1 1h16a1 1 0 0 0 1-1V3a1 1 0 0 0-1-1H1zm1 12V4h14v10H2z"/><path d="M3 11h3v2H3zm9 0h3v2h-3zm-5 0h4v2H7z"/></symbol><symbol viewBox="0 0 18 18" id="icon-enter-fullscreen"><path d="M6.425 10.165l-2.57 2.57.018-1.847c-.003-.552-.45-1-1.002-1.002a.983.983 0 0 0-.99.992l-.023 4.22a1 1 0 0 0 .295.707c.01.007.017.016.026.023.008.007.015.017.023.025.188.188.443.294.707.295l4.22-.023a.987.987 0 0 0 .992-.992c-.004-.55-.45-1-1.003-1.002l-1.847.018 2.568-2.57a.99.99 0 0 0 0-1.4l-.012-.012a.99.99 0 0 0-1.4 0zm7.73-4.9l-.018 1.847c.003.552.45 1 1.002 1.002a.983.983 0 0 0 .99-.992l.024-4.22a1.01 1.01 0 0 0-.296-.707c-.01-.007-.017-.016-.026-.023-.008-.007-.015-.017-.023-.025a1.003 1.003 0 0 0-.707-.295l-4.22.023a.984.984 0 0 0-.99.992c0 .55.45 1 1 1.002l1.847-.018-2.568 2.57a.99.99 0 0 0 0 1.4.996.996 0 0 0 1.413.012l2.57-2.57z"/></symbol><symbol viewBox="0 0 18 18" id="icon-exit-fullscreen"><path d="M14.425 2.165l-2.57 2.57.018-1.847c-.003-.552-.45-1-1.002-1.002a.983.983 0 0 0-.99.992l-.023 4.22a1 1 0 0 0 .295.707c.01.007.017.016.026.023.008.007.015.017.023.025.188.188.443.294.707.295l4.22-.023a.987.987 0 0 0 .992-.992c-.004-.55-.45-1-1.003-1.002l-1.847.018 2.568-2.57a.99.99 0 0 0 0-1.4l-.012-.012a.99.99 0 0 0-1.4 0zm-8.27 11.1l-.018 1.847c.003.552.45 1 1.002 1.002a.983.983 0 0 0 .99-.992l.024-4.22a1.01 1.01 0 0 0-.296-.707c-.01-.007-.017-.016-.026-.023-.008-.007-.015-.017-.023-.025a1.003 1.003 0 0 0-.707-.295l-4.22.023a.984.984 0 0 0-.99.992c0 .55.45 1 1 1.002l1.847-.018-2.568 2.57a.99.99 0 0 0 0 1.4.996.996 0 0 0 1.413.012l2.57-2.57z"/></symbol><symbol viewBox="0 0 18 18" id="icon-fast-forward"><path d="M17.57 8.246L7 2a1 1 0 0 0-1 1v1.954L1 2a1 1 0 0 0-1 1v12a1 1 0 0 0 1 1l5-2.955V15a1 1 0 0 0 1 1l10.57-6.246a.877.877 0 0 0 0-1.508zM6 10.722l-4 2.364V4.914l4 2.364v3.444zm2 2.364V4.914L14.915 9 8 13.086z"/></symbol><symbol viewBox="0 0 18 18" id="icon-muted"><path d="M9.214 2a.63.63 0 0 0-.334.1L4.832 4.91A.478.478 0 0 1 4.55 5H.995A.998.998 0 0 0 0 6v6c0 .552.446 1 .996 1H4.55c.1 0 .2.03.282.09L8.88 15.9c.11.068.223.1.334.1.392 0 .747-.4.747-.95V2.95c0-.55-.353-.95-.745-.95zM7.97 12.834l-2.39-1.657A.996.996 0 0 0 5.014 11H2.49a.5.5 0 0 1-.497-.5v-3c0-.278.223-.5.498-.5h2.527c.202 0 .4-.064.566-.18L7.97 5.164v7.67zM14.934 8.8c-.086-1.75-1.514-2.992-2.507-3.65-.47-.312-1.094-.122-1.325.408l-.038.086a.973.973 0 0 0 .336 1.194c.706.473 1.586 1.247 1.624 2.065.032.676-.553 1.468-1.663 2.27a.988.988 0 0 0-.283 1.275l.042.075c.265.475.865.624 1.3.312 1.74-1.25 2.585-2.606 2.515-4.037z"/><path d="M13.957 9.2c.086 1.747 1.514 2.99 2.507 3.648.47.312 1.094.122 1.325-.408l.036-.086a.973.973 0 0 0-.336-1.194c-.705-.473-1.585-1.247-1.623-2.065-.032-.676.553-1.468 1.663-2.27a.986.986 0 0 0 .285-1.275l-.042-.075c-.266-.475-.866-.624-1.3-.312-1.74 1.25-2.586 2.606-2.516 4.037z"/></symbol><symbol viewBox="0 0 18 18" id="icon-pause"><path d="M2 4v10c0 2 2 2 2 2h2s2 0 2-2V4c0-2-2-2-2-2H4S2 2 2 4zm2 0h2v10H4V4zm6 0v10c0 2 2 2 2 2h2s2 0 2-2V4c0-2-2-2-2-2h-2s-2 0-2 2zm2 0h2v10h-2V4z"/></symbol><symbol viewBox="0 0 18 18" id="icon-play"><path d="M5 4.914L11.915 9 5 13.086V4.914zM4 2a1 1 0 0 0-1 1v12a1 1 0 0 0 1 1l10.57-6.246a.877.877 0 0 0 0-1.508L4 2z"/></symbol><symbol viewBox="0 0 18 18" id="icon-restart"><path d="M1 2a1 1 0 0 1 1 1v4.318L11 2a1 1 0 0 1 1 1v1.954L17 2a1 1 0 0 1 1 1v12a1 1 0 0 1-1 1l-5-2.955V15a1 1 0 0 1-1 1l-9-5.318V15a1 1 0 0 1-2 0V3a1 1 0 0 1 1-1zm11 8.722l4 2.364V4.914l-4 2.364v3.444zm-2 2.364V4.914L3.085 9 10 13.086z"/></symbol><symbol viewBox="0 0 18 21" id="icon-rewind"><path d="M.43 10.754L11 17a1 1 0 0 0 1-1v-1.954L17 17a1 1 0 0 0 1-1V4a1 1 0 0 0-1-1l-5 2.955V4a1 1 0 0 0-1-1L.43 9.246a.876.876 0 0 0 0 1.508zM12 8.278l4-2.364v8.172l-4-2.364V8.278zm-2-2.364v8.172L3.085 10 10 5.914z"/></symbol><symbol viewBox="0 0 18 18" id="icon-volume"><path d="M10.214 2a.63.63 0 0 0-.334.1L5.832 4.91A.478.478 0 0 1 5.55 5H1.995A.998.998 0 0 0 1 6v6c0 .552.446 1 .996 1H5.55c.1 0 .2.03.282.09L9.88 15.9c.11.068.223.1.334.1.392 0 .747-.4.747-.95V2.95c0-.55-.353-.95-.745-.95zM8.97 12.834l-2.39-1.657A.996.996 0 0 0 6.014 11H3.49a.5.5 0 0 1-.497-.5v-3c0-.278.223-.5.498-.5h2.527c.202 0 .4-.064.566-.18L8.97 5.164v7.67zM16.934 8.8c-.086-1.75-1.514-2.992-2.507-3.65-.47-.312-1.094-.122-1.325.408l-.038.086a.973.973 0 0 0 .336 1.194c.706.473 1.586 1.247 1.624 2.065.032.676-.553 1.468-1.663 2.27a.988.988 0 0 0-.283 1.275l.042.075c.265.475.865.624 1.3.312 1.74-1.25 2.585-2.606 2.515-4.037z"/></symbol></svg>